<svg width="168" height="81" viewBox="0 0 168 81" fill="none" xmlns="http://www.w3.org/2000/svg">
<path d="M167.702 2.08937L94.7236 16.6851V21.7489H95.0215C142.979 9.83405 167.702 2.98299 167.702 2.68512C168 2.68512 168 2.38724 168 2.08937C168 2.08937 168 2.08937 167.702 2.08937Z" fill="#4B286D"/>
<path d="M106.34 6.25958C107.532 5.66384 107.83 5.96171 107.532 6.85533C106.936 8.04681 104.553 16.0894 86.0851 31.2809C81.3191 35.1532 77.7447 37.5362 70.8936 41.4085C82.2128 25.3234 98.8936 11.0255 106.34 6.25958ZM108.426 0.600006C104.851 0.897878 98.2979 5.96171 94.7234 9.2383C80.4255 21.7489 69.7021 33.0681 61.9574 44.983C45.8723 53.6213 25.0213 62.5575 4.76596 69.4085L4.17021 69.7064L0 80.4298L2.38298 79.5362C15.4894 74.4723 37.234 65.2383 56.8936 54.8128C55.7021 57.7915 55.1064 60.4723 55.1064 62.8553C55.1064 64.6426 55.4043 66.4298 56 67.9192C57.1915 70.8979 59.5745 73.2809 63.1489 74.7702C68.2128 76.8553 75.0638 76.8553 82.8085 74.4723C102.766 68.5149 126.596 49.7489 131.957 45.8766H132.255C132.553 45.5787 132.553 45.5787 132.255 45.2809C132.255 44.983 131.957 44.983 131.66 45.2809L131.362 45.5787C125.702 48.8553 98.8936 64.9404 81.3191 69.7064C72.383 72.0894 65.5319 70.8979 62.8511 67.3234C61.9574 66.1319 61.6596 64.6426 61.6596 62.8553C61.6596 59.2809 63.4468 54.8128 66.4255 49.7489C69.4043 47.9617 72.0851 46.4723 74.766 44.983C91.7447 34.8553 111.702 16.3872 112.596 4.77022V4.47235C112.596 3.57873 112.298 2.38724 111.404 1.7915C110.511 0.897878 109.319 0.600006 108.426 0.600006Z" fill="#66CC00"/>
<path d="M94.4252 16.6851L17.5742 33.0681L14.5955 41.1106L94.7231 21.7489V16.6851H94.4252Z" fill="#4B286D"/>
</svg>
