<svg width="213" height="28" viewBox="0 0 213 28" fill="none" xmlns="http://www.w3.org/2000/svg">
<path d="M84.5 8.00001V5.20001H74.2V20H84.5V17H78.4V13.7H83.5V10.8H78.4V8.00001H84.5Z" fill="#4B286D"/>
<path d="M102.6 17H96.2V5.20001H92V20H102.6V17Z" fill="#4B286D"/>
<path d="M136.5 10.8C133.7 10.2 132.7 10.1 132.7 9.00002C132.7 8.00002 134.1 7.60002 134.9 7.60002C136.2 7.60002 137.8 7.90002 139.3 8.70002L140.4 6.00002C138.8 5.10002 136.7 4.80002 134.7 4.80002C130.8 4.80002 128.1 6.40002 128 9.50002C127.9 12.3 130.2 13.4 132.3 13.8C134.3 14.2 136.4 14.6 136.4 15.8C136.4 16.9 135.4 17.4 133.5 17.4C131.7 17.4 130.1 16.8 128.4 16.1L127.4 19.1C129.3 19.9 131.3 20.4 133.3 20.4C136.1 20.4 138.1 20 139.6 18.6C140.6 17.6 141 16.5 141 15.4C141.3 12.9 139.8 11.5 136.5 10.8Z" fill="#4B286D"/>
<path d="M68.2 8.10001V5.20001H55.3V8.10001H59.7001V20H63.9001V8.10001H68.2Z" fill="#4B286D"/>
<path d="M117 5.20001V14.6C117 15.3 117 15.5 117 15.8C116.9 16.7 116 17.2 114.6 17.2C113.6 17.2 112.8 16.9 112.5 16.3C112.3 16 112.2 15.5 112.2 14.7V5.20001H107.8V15.4C107.8 16.8 108 17.5 108.6 18.3C109.7 19.6 111.7 20.3 114.5 20.3H114.6C114.6 20.3 114.6 20.3 114.7 20.3C118.5 20.3 120.4 18.8 121 17.4C121.3 16.7 121.3 16.4 121.3 15.1V5.20001H117Z" fill="#4B286D"/>
<path d="M57.3 1.10001L32.8 6.00001V7.70001H32.9001C49.0001 3.70001 57.3 1.40001 57.3 1.30001C57.4 1.30001 57.4001 1.20001 57.4001 1.10001C57.4001 1.10001 57.4 1.10001 57.3 1.10001Z" fill="#4B286D"/>
<path d="M36.7 2.50001C37.1 2.30001 37.2 2.40001 37.1 2.70001C36.9 3.10001 36.1 5.80001 29.9 10.9C28.3 12.2 27.1 13 24.8 14.3C28.6 8.90001 34.2 4.10001 36.7 2.50001ZM37.4 0.600006C36.2 0.700006 34 2.40001 32.8 3.50001C28 7.70001 24.4 11.5 21.8 15.5C16.4 18.4 9.4 21.4 2.6 23.7L2.4 23.8L1 27.4L1.8 27.1C6.2 25.4 13.5 22.3 20.1 18.8C19.7 19.8 19.5 20.7 19.5 21.5C19.5 22.1 19.6 22.7 19.8 23.2C20.2 24.2 21 25 22.2 25.5C23.9 26.2 26.2 26.2 28.8 25.4C35.5 23.4 43.5 17.1 45.3 15.8H45.4C45.5 15.7 45.5 15.7 45.4 15.6C45.4 15.5 45.3 15.5 45.2 15.6L45.1 15.7C43.2 16.8 34.2 22.2 28.3 23.8C25.3 24.6 23 24.2 22.1 23C21.8 22.6 21.7 22.1 21.7 21.5C21.7 20.3 22.3 18.8 23.3 17.1C24.3 16.5 25.2 16 26.1 15.5C31.8 12.1 38.5 5.90001 38.8 2.00001V1.90001C38.8 1.60001 38.7 1.20001 38.4 1.00001C38.1 0.700006 37.7 0.600006 37.4 0.600006Z" fill="#66CC00"/>
<path d="M32.6999 6L6.8999 11.5L5.8999 14.2L32.7999 7.7V6H32.6999Z" fill="#4B286D"/>
<path d="M143.7 5.20001C144.5 5.20001 145.2 5.90001 145.2 6.70001C145.2 7.60001 144.5 8.20001 143.7 8.20001C142.9 8.20001 142.1 7.50001 142.1 6.70001C142.1 5.80001 142.8 5.20001 143.7 5.20001ZM143.7 8.00001C144.4 8.00001 145 7.40001 145 6.70001C145 6.00001 144.4 5.40001 143.7 5.40001C143 5.40001 142.4 6.00001 142.4 6.70001C142.4 7.40001 143 8.00001 143.7 8.00001ZM143.1 5.80001H143.8C144.2 5.80001 144.4 6.00001 144.4 6.30001C144.4 6.60001 144.2 6.80001 143.9 6.80001L144.4 7.60001H144.1L143.6 6.80001H143.3V7.60001H143L143.1 5.80001ZM143.4 6.60001H143.7C143.9 6.60001 144.2 6.60001 144.2 6.30001C144.2 6.10001 144 6.00001 143.8 6.00001H143.4V6.60001Z" fill="#4B286D"/>
<path d="M166.3 5.20001V20H164V13.4H156.4V20H154.2V5.20001H156.4V11.4H164V5.20001H166.3Z" fill="#4B286D"/>
<path d="M178.4 15.3H170.3C170.4 16.4 170.7 17.2 171.2 17.7C171.7 18.2 172.4 18.5 173.3 18.5C174 18.5 174.5 18.3 175 18C175.4 17.7 175.8 17.2 176 16.7H178.1C177.9 17.4 177.6 18 177.2 18.6C176.8 19.1 176.2 19.5 175.6 19.8C174.9 20.1 174.2 20.2 173.3 20.2C172.3 20.2 171.4 20 170.6 19.5C169.8 19 169.2 18.4 168.8 17.5C168.4 16.7 168.2 15.7 168.2 14.5C168.2 13.4 168.4 12.4 168.8 11.6C169.2 10.7 169.8 10.1 170.6 9.60003C171.4 9.10003 172.3 8.90002 173.3 8.90002C174.4 8.90002 175.3 9.10003 176 9.60003C176.7 10.1 177.4 10.8 177.8 11.6C178.2 12.4 178.4 13.4 178.4 14.5V15.3ZM171.3 11.5C170.8 12 170.4 12.7 170.3 13.7H176.2C176.1 13.1 176 12.6 175.7 12.2C175.5 11.8 175.1 11.4 174.7 11.2C174.3 11 173.8 10.8 173.2 10.8C172.5 10.7 171.8 11 171.3 11.5Z" fill="#4B286D"/>
<path d="M190 18.4V20C189.7 20 189.4 20.1 189 20.1C188.3 20.1 187.8 20 187.5 19.7C187.2 19.5 187 19.1 186.9 18.5C186.5 19.1 186.1 19.5 185.5 19.8C184.9 20.1 184.2 20.2 183.4 20.2C182.6 20.2 181.9 20.1 181.4 19.8C180.8 19.6 180.4 19.2 180.1 18.7C179.8 18.2 179.6 17.6 179.6 17C179.6 15 180.9 13.9 183.6 13.7L185.2 13.5C185.7 13.4 186.1 13.3 186.4 13.1C186.7 12.9 186.8 12.6 186.8 12.2C186.8 11.7 186.6 11.3 186.3 11C186 10.8 185.4 10.6 184.6 10.6C184 10.6 183.6 10.7 183.2 10.8C182.8 10.9 182.6 11.1 182.4 11.4C182.2 11.7 182.1 12.1 182.1 12.5H180C180.1 11.3 180.5 10.5 181.2 9.80002C181.9 9.20002 183 8.90002 184.6 8.90002C186.1 8.90002 187.1 9.20002 187.8 9.70002C188.5 10.2 188.8 11 188.8 12V17.7C188.8 18.1 189 18.2 189.4 18.2L190 18.4ZM185.2 18.3C185.7 18.1 186 17.8 186.3 17.3C186.6 16.9 186.7 16.3 186.7 15.7V14.6C186.4 14.8 186 15 185.4 15L183.9 15.2C183.1 15.3 182.5 15.5 182.2 15.8C181.9 16.1 181.7 16.5 181.7 17C181.7 17.5 181.9 17.9 182.2 18.2C182.5 18.5 183 18.6 183.7 18.6C184.2 18.6 184.7 18.5 185.2 18.3Z" fill="#4B286D"/>
<path d="M192 19.5C191.5 19.1 191.3 18.5 191.3 17.6V5.20001H193.4V17.4C193.4 17.7 193.5 18 193.6 18.1C193.8 18.2 194 18.3 194.4 18.3H195.2V20C194.8 20 194.4 20.1 194 20.1C193.1 20 192.4 19.8 192 19.5Z" fill="#4B286D"/>
<path d="M199 10.9V17.4C199 17.7 199.1 18 199.3 18.1C199.5 18.2 199.8 18.3 200.2 18.3H201.1V20C200.6 20 200.2 20.1 199.8 20.1C198.8 20.1 198.1 19.9 197.6 19.5C197.1 19.1 196.9 18.5 196.9 17.6V11H195.2V9.20001H196.9V6.10001H199V9.20001H201.2V10.9H199Z" fill="#4B286D"/>
<path d="M211 10C211.7 10.7 212 11.6 212 12.8V20H209.9V13.1C209.9 11.6 209.1 10.9 207.6 10.9C207.2 10.9 206.7 11 206.3 11.2C205.9 11.4 205.5 11.8 205.3 12.2C205 12.7 204.9 13.2 204.9 13.9V20H202.8V5.20001H204.9V10.8C205.3 10.3 205.7 9.90001 206.3 9.50001C206.9 9.20001 207.5 9.00001 208.2 9.00001C209.4 9.00001 210.3 9.30001 211 10Z" fill="#4B286D"/>
</svg>
