<svg width="57" height="28" viewBox="0 0 57 28" fill="none" xmlns="http://www.w3.org/2000/svg">
<path d="M56.3 1.10001L31.8 6.00001V7.70001H31.9001C48.0001 3.70001 56.3 1.40001 56.3 1.30001C56.4 1.30001 56.4001 1.20001 56.4001 1.10001C56.4001 1.10001 56.4 1.10001 56.3 1.10001Z" fill="#4B286D"/>
<path d="M35.7 2.50001C36.1 2.30001 36.2 2.40001 36.1 2.70001C35.9 3.10001 35.1 5.80001 28.9 10.9C27.3 12.2 26.1 13 23.8 14.3C27.6 8.90001 33.2 4.10001 35.7 2.50001ZM36.4 0.600006C35.2 0.700006 33 2.40001 31.8 3.50001C27 7.70001 23.4 11.5 20.8 15.5C15.4 18.4 8.4 21.4 1.6 23.7L1.4 23.8L0 27.4L0.8 27.1C5.2 25.4 12.5 22.3 19.1 18.8C18.7 19.8 18.5 20.7 18.5 21.5C18.5 22.1 18.6 22.7 18.8 23.2C19.2 24.2 20 25 21.2 25.5C22.9 26.2 25.2 26.2 27.8 25.4C34.5 23.4 42.5 17.1 44.3 15.8H44.4C44.5 15.7 44.5 15.7 44.4 15.6C44.4 15.5 44.3 15.5 44.2 15.6L44.1 15.7C42.2 16.8 33.2 22.2 27.3 23.8C24.3 24.6 22 24.2 21.1 23C20.8 22.6 20.7 22.1 20.7 21.5C20.7 20.3 21.3 18.8 22.3 17.1C23.3 16.5 24.2 16 25.1 15.5C30.8 12.1 37.5 5.90001 37.8 2.00001V1.90001C37.8 1.60001 37.7 1.20001 37.4 1.00001C37.1 0.700006 36.7 0.600006 36.4 0.600006Z" fill="#66CC00"/>
<path d="M31.6999 6L5.8999 11.5L4.8999 14.2L31.7999 7.7V6H31.6999Z" fill="#4B286D"/>
</svg>
